HIERARCHY
ROOT hip
{
  OFFSET -0.104254 88.5389 -14.5446
  CHANNELS 6 Xposition Yposition Zposition Zrotation Xrotation Yrotation
  JOINT abdomen
  {
    OFFSET 0 6.09653 0.699602
    CHANNELS 3 Zrotation Xrotation Yrotation
    JOINT chest
    {
      OFFSET 0 2.49857 -0.699602
      CHANNELS 3 Zrotation Xrotation Yrotation
      JOINT lCollar
      {
        OFFSET 1.49915 11.2936 -1.69903
        CHANNELS 3 Zrotation Xrotation Yrotation
        JOINT lShldr
        {
          OFFSET 4.89721 -0.299833 0.799545
          CHANNELS 3 Zrotation Xrotation Yrotation
          JOINT lForeArm
          {
            OFFSET 12.4216 -1.19922 0.931564
            CHANNELS 3 Zrotation Xrotation Yrotation
            JOINT lHand
            {
              OFFSET 9.86568 0.0998482 3.66582
              CHANNELS 3 Zrotation Xrotation Yrotation
              JOINT lPinky1
              {
                OFFSET 3.29812 0.0999421 -0.399772
                CHANNELS 3 Zrotation Xrotation Yrotation
                JOINT lPinky2
                {
                  OFFSET 0.899488 -0.0999427 0
                  CHANNELS 3 Zrotation Xrotation Yrotation
                  End Site
                  {
                    OFFSET 0.999427 -0.0999418 0
                  }
                }
              }
              JOINT lThumb1
              {
                OFFSET 0.399772 -0.399773 1.19932
                CHANNELS 3 Zrotation Xrotation Yrotation
                JOINT lThumb2
                {
                  OFFSET 0.99813 0 1.47145
                  CHANNELS 3 Zrotation Xrotation Yrotation
                  End Site
                  {
                    OFFSET 0.97784 -0.27884 0.829828
                  }
                }
              }
              JOINT lMid1
              {
                OFFSET 2.99829 0.499714 1.09937
                CHANNELS 3 Zrotation Xrotation Yrotation
                JOINT lMid2
                {
                  OFFSET 1.45827 -0.0999388 0.600149
                  CHANNELS 3 Zrotation Xrotation Yrotation
                  End Site
                  {
                    OFFSET 1.04031 -0.0999473 0.399282
                  }
                }
              }
              JOINT lRing1
              {
                OFFSET 3.39806 0.399773 0.299829
                CHANNELS 3 Zrotation Xrotation Yrotation
                JOINT lRing2
                {
                  OFFSET 1.29926 -0.199886 0.399772
                  CHANNELS 3 Zrotation Xrotation Yrotation
                  End Site
                  {
                    OFFSET 0.899489 -0.0999425 0.199886
                  }
                }
              }
              JOINT lIndex1
              {
                OFFSET 2.69846 0.399775 2.09881
                CHANNELS 3 Zrotation Xrotation Yrotation
                JOINT lIndex2
                {
                  OFFSET 1.33823 -0.200884 0.6843
                  CHANNELS 3 Zrotation Xrotation Yrotation
                  End Site
                  {
                    OFFSET 0.760567 0.00099574 0.415074
                  }
                }
              }
            }
          }
        }
      }
      JOINT rCollar
      {
        OFFSET -1.49915 11.2936 -1.69903
        CHANNELS 3 Zrotation Xrotation Yrotation
        JOINT rShldr
        {
          OFFSET -4.89721 -0.299829 0.799545
          CHANNELS 3 Zrotation Xrotation Yrotation
          JOINT rForeArm
          {
            OFFSET -12.4216 -1.19922 0.931564
            CHANNELS 3 Zrotation Xrotation Yrotation
            JOINT rHand
            {
              OFFSET -9.86568 0.0998477 3.66582
              CHANNELS 3 Zrotation Xrotation Yrotation
              JOINT rThumb1
              {
                OFFSET -0.399773 -0.39977 1.19932
                CHANNELS 3 Zrotation Xrotation Yrotation
                JOINT rThumb2
                {
                  OFFSET -0.998132 0 1.47145
                  CHANNELS 3 Zrotation Xrotation Yrotation
                  End Site
                  {
                    OFFSET -0.977841 -0.278837 0.829828
                  }
                }
              }
              JOINT rIndex1
              {
                OFFSET -2.69847 0.399775 2.09881
                CHANNELS 3 Zrotation Xrotation Yrotation
                JOINT rIndex2
                {
                  OFFSET -1.33823 -0.200883 0.6843
                  CHANNELS 3 Zrotation Xrotation Yrotation
                  End Site
                  {
                    OFFSET -0.760569 0.00099747 0.415074
                  }
                }
              }
              JOINT rMid1
              {
                OFFSET -2.99829 0.499717 1.09937
                CHANNELS 3 Zrotation Xrotation Yrotation
                JOINT rMid2
                {
                  OFFSET -1.45827 -0.0999391 0.600149
                  CHANNELS 3 Zrotation Xrotation Yrotation
                  End Site
                  {
                    OFFSET -1.0403 -0.0999474 0.399282
                  }
                }
              }
              JOINT rRing1
              {
                OFFSET -3.39807 0.399775 0.299829
                CHANNELS 3 Zrotation Xrotation Yrotation
                JOINT rRing2
                {
                  OFFSET -1.29926 -0.199888 0.399772
                  CHANNELS 3 Zrotation Xrotation Yrotation
                  End Site
                  {
                    OFFSET -0.899487 -0.0999402 0.199886
                  }
                }
              }
              JOINT rPinky1
              {
                OFFSET -3.29812 0.0999423 -0.399772
                CHANNELS 3 Zrotation Xrotation Yrotation
                JOINT rPinky2
                {
                  OFFSET -0.899492 -0.0999405 0
                  CHANNELS 3 Zrotation Xrotation Yrotation
                  End Site
                  {
                    OFFSET -0.999429 -0.0999421 0
                  }
                }
              }
            }
          }
        }
      }
      JOINT neck
      {
        OFFSET 0 12.4929 -0.499715
        CHANNELS 3 Zrotation Xrotation Yrotation
        JOINT head
        {
          OFFSET 0 3.59795 0.299829
          CHANNELS 3 Zrotation Xrotation Yrotation
          JOINT leftEye
          {
            OFFSET 1.19932 3.69789 3.19818
            CHANNELS 3 Zrotation Xrotation Yrotation
            End Site
            {
              OFFSET 0 0 0
            }
          }
          JOINT rightEye
          {
            OFFSET -1.19932 3.69789 3.19818
            CHANNELS 3 Zrotation Xrotation Yrotation
            End Site
            {
              OFFSET 0 0 0
            }
          }
        }
      }
    }
  }
  JOINT rButtock
  {
    OFFSET -4.19761 -0.599656 -0.299829
    CHANNELS 3 Zrotation Xrotation Yrotation
    JOINT rThigh
    {
      OFFSET 0 -1.49915 0
      CHANNELS 3 Zrotation Xrotation Yrotation
      JOINT rShin
      {
        OFFSET 0.699602 -17.6899 -1.09938
        CHANNELS 3 Zrotation Xrotation Yrotation
        JOINT rFoot
        {
          OFFSET -0.699602 -18.0897 -0.699602
          CHANNELS 3 Zrotation Xrotation Yrotation
          End Site
          {
            OFFSET 0 -2.09881 5.59681
          }
        }
      }
    }
  }
  JOINT lButtock
  {
    OFFSET 4.19761 -0.599656 -0.299829
    CHANNELS 3 Zrotation Xrotation Yrotation
    JOINT lThigh
    {
      OFFSET 0 -1.49914 0
      CHANNELS 3 Zrotation Xrotation Yrotation
      JOINT lShin
      {
        OFFSET -0.699602 -17.6899 -1.09937
        CHANNELS 3 Zrotation Xrotation Yrotation
        JOINT lFoot
        {
          OFFSET 0.699602 -18.0897 -0.699602
          CHANNELS 3 Zrotation Xrotation Yrotation
          End Site
          {
            OFFSET 0 -2.0988 5.59681
          }
        }
      }
    }
  }
}
MOTION
Frames:	5
Frame Time:	0.0333333
-0.104254 88.5389 -14.5446 -2.81334 -9.2373 -4.44532 -0.00975517 -0.00975351 -0.00975351 -4.86488 5.3007 0.901829 -7.41784 2.30064 -19.6015 -64.3021 23.1925 5.50697 65.4067 3.65693 -68.8777 -28.0118 6.88199 13.1735 -1.89055 1.08189 -28.0686 -0.629967 -0.0099583 0.0010089 -1.87818 1.06148 -28.0917 9.40787 -7.94586 0.599069 -1.91292 1.08254 -28.0857 0.181555 0.424301 -1.45108 -1.90885 1.07494 -28.0899 -2.42857 -0.502363 -4.43241 -1.90208 1.09705 -28.0878 -8.62302 -0.0231909 1.79819 2.31489 0.242355 11.8137 70.7333 27.0892 -0.911031 -54.7155 16.5383 60.9649 11.0164 3.9874 -0.966084 1.8765 1.0053 28.0257 -9.40282 -7.91099 -0.69994 1.84104 1.04198 28.023 8.61171 -0.00190224 -1.79828 1.84571 1.02832 28.013 -0.243675 0.394432 1.44876 1.84463 1.02332 28.0095 2.42704 -0.497593 4.4329 1.83969 1.02684 28.0275 0.629425 -0.00953168 -0.000952463 4.79215 -5.36492 -0.458313 -25.0219 -5.36708 -66.8423 0 0 0 0 0 0 -0.00975517 -0.00969887 -0.00983547 -13.9362 -69.4106 -18.7555 12.3067 74.4552 -0.997262 -0.497619 5.93944 -0.184446 -0.00975517 -0.00983547 -0.00969887 27.2809 -68.6719 30.4037 -18.2588 79.6967 4.42066 4.06343 2.65996 -0.148367 
-0.11613 88.525 -14.5183 -2.69614 -9.14942 -4.40619 -0.00975517 -0.00975351 -0.00975351 -4.97237 5.41786 0.862113 -7.82916 2.38527 -19.352 -63.7074 23.4007 5.63559 65.256 3.16142 -69.0419 -28.1529 6.86961 13.3526 -1.89056 1.08189 -28.0686 -0.629967 -0.0099583 0.0010089 -1.87818 1.06148 -28.0917 9.40787 -7.94586 0.599069 -1.91292 1.08254 -28.0857 0.181555 0.424301 -1.45108 -1.90885 1.07494 -28.0899 -2.42857 -0.502363 -4.43241 -1.90208 1.09705 -28.0878 -8.62302 -0.0231909 1.79819 2.74366 0.308902 11.4618 70.2813 27.4706 -1.00382 -54.8214 15.8033 61.3981 11.3629 4.07235 -1.30782 1.8765 1.0053 28.0257 -9.40282 -7.91099 -0.69994 1.84104 1.04198 28.023 8.61171 -0.00190224 -1.79828 1.84571 1.02832 28.013 -0.243675 0.394432 1.44876 1.84463 1.02332 28.0095 2.42704 -0.497593 4.4329 1.83969 1.02684 28.0275 0.629425 -0.00953168 -0.000952463 4.89524 -5.48193 -0.411675 -24.915 -5.45382 -67.2548 0 0 0 0 0 0 -0.00975517 -0.00969887 -0.00983547 -14.3103 -69.5298 -19.1062 12.3762 74.5521 -1.01406 -0.684692 5.94893 -0.167842 -0.00975517 -0.00983547 -0.00969887 27.2806 -68.7598 30.5318 -18.3159 79.7229 4.38453 4.13312 2.67066 -0.152645 
-0.127665 88.5149 -14.4919 -2.56918 -9.05176 -4.36749 -0.00975517 -0.00975351 -0.00975351 -5.08961 5.51547 0.862287 -7.85833 2.38136 -19.222 -63.5588 23.5265 5.73851 65.0093 2.90164 -69.1217 -28.1305 6.81531 13.5292 -1.89056 1.08189 -28.0686 -0.629967 -0.0099583 0.0010089 -1.87818 1.06148 -28.0917 9.40787 -7.94586 0.599069 -1.91292 1.08254 -28.0857 0.181555 0.424301 -1.45108 -1.90885 1.07494 -28.0899 -2.42857 -0.502363 -4.43241 -1.90208 1.09705 -28.0878 -8.62302 -0.0231909 1.79819 2.7922 0.307544 11.1979 70.3031 27.6732 -1.06684 -54.9815 15.3379 61.7023 11.5317 4.10688 -1.52353 1.8765 1.0053 28.0257 -9.40282 -7.91099 -0.69994 1.84104 1.04198 28.023 8.61171 -0.00190224 -1.79828 1.84571 1.02832 28.013 -0.243675 0.394432 1.44876 1.84463 1.02332 28.0095 2.42704 -0.497593 4.4329 1.83969 1.02684 28.0275 0.629425 -0.00953168 -0.000952463 5.01533 -5.57945 -0.386378 -24.7557 -5.39154 -67.6478 0 0 0 0 0 0 -0.00975517 -0.00969887 -0.00983547 -14.6569 -69.6587 -19.4096 12.4409 74.6397 -1.02236 -0.83163 5.94845 -0.154531 -0.00975517 -0.00983547 -0.00969887 27.2897 -68.8478 30.6698 -18.3241 79.7206 4.32152 4.22218 2.71007 -0.158082 
-0.137648 88.509 -14.4675 -2.46175 -8.93457 -4.34789 -0.00975517 -0.00975351 -0.00975351 -5.17753 5.60333 0.881967 -7.67294 2.32494 -19.1163 -63.6483 23.6151 5.7445 64.7223 2.78701 -69.1502 -28.0878 6.76544 13.6711 -1.89056 1.08189 -28.0686 -0.629967 -0.0099583 0.0010089 -1.87818 1.06148 -28.0917 9.40787 -7.94586 0.599069 -1.91292 1.08254 -28.0857 0.181555 0.424301 -1.45108 -1.90885 1.07494 -28.0899 -2.42857 -0.502363 -4.43241 -1.90208 1.09705 -28.0878 -8.62302 -0.0231909 1.79819 2.644 0.27139 10.9505 70.5307 27.77 -1.12185 -55.2634 15.0389 61.9537 11.5466 4.10512 -1.58094 1.8765 1.0053 28.0257 -9.40282 -7.91099 -0.69994 1.84104 1.04198 28.023 8.61171 -0.00190224 -1.79828 1.84571 1.02832 28.013 -0.243675 0.394432 1.44876 1.84463 1.02332 28.0095 2.42705 -0.497593 4.4329 1.83969 1.02684 28.0275 0.629425 -0.00953168 -0.000952463 5.10261 -5.66714 -0.390357 -24.6815 -5.30038 -68.1514 0 0 0 0 0 0 -0.00975517 -0.00969887 -0.00983547 -15.0012 -69.8073 -19.7273 12.4932 74.7078 -1.01904 -0.978594 5.96779 -0.141816 -0.00975517 -0.00983547 -0.00969887 27.3076 -68.9455 30.8047 -18.3309 79.7192 4.27363 4.27178 2.71056 -0.161166 
-0.144468 88.5042 -14.4459 -2.36409 -8.80762 -4.37712 -0.00975517 -0.00975351 -0.00975351 -5.22639 5.74001 0.930942 -7.44068 2.25702 -19.0104 -63.8008 23.7297 5.6816 64.3406 2.67711 -69.1745 -28.0204 6.67704 13.9316 -1.89056 1.08189 -28.0686 -0.629967 -0.0099583 0.0010089 -1.87818 1.06148 -28.0917 9.40787 -7.94586 0.599069 -1.91292 1.08254 -28.0857 0.181555 0.424301 -1.45108 -1.90885 1.07494 -28.0899 -2.42857 -0.502363 -4.43241 -1.90208 1.09705 -28.0878 -8.62302 -0.0231909 1.79819 2.43573 0.226819 10.7461 70.7954 27.7612 -1.17092 -55.5375 14.7728 62.1817 11.471 4.07947 -1.56829 1.8765 1.0053 28.0257 -9.40282 -7.91099 -0.69994 1.84104 1.04198 28.023 8.61172 -0.00190224 -1.79828 1.84571 1.02832 28.013 -0.243675 0.394432 1.44876 1.84463 1.02332 28.0095 2.42705 -0.497593 4.4329 1.83969 1.02684 28.0275 0.629425 -0.00953168 -0.000952463 5.1382 -5.81305 -0.417302 -24.5698 -5.27739 -68.5315 0 0 0 0 0 0 -0.00975517 -0.00969887 -0.00983547 -15.1778 -69.9552 -19.857 12.5239 74.7461 -1.00939 -1.0776 5.98779 -0.133427 -0.00975517 -0.00983547 -0.00969887 27.4299 -69.0339 31.0255 -18.3281 79.7183 4.27709 4.34986 2.72962 -0.16601 
